<svg width="29" height="37" viewBox="0 0 29 37" fill="none" xmlns="http://www.w3.org/2000/svg">
<path d="M24.8395 37H4.16569C2.94857 37 1.79202 36.4699 1.00068 35.549C0.209343 34.6283 -0.138011 33.4086 0.0500464 32.2114L3.50135 10.2765C3.61831 9.51243 4.00745 8.81562 4.59739 8.31304C5.18732 7.81046 5.93879 7.53572 6.71513 7.53897H8.57861C7.68633 -2.5168 21.6801 -2.50919 20.7853 7.53897H22.29C23.0664 7.53546 23.8181 7.81025 24.408 8.31283C24.998 8.81539 25.3869 9.5125 25.5038 10.2766L28.954 32.2114C29.1334 33.407 28.783 34.6216 27.9934 35.5402C27.204 36.4588 26.0533 36.9914 24.839 37H24.8395ZM6.71527 9.35459C6.37415 9.35324 6.04362 9.47401 5.7845 9.69476C5.52507 9.91577 5.35411 10.2219 5.30255 10.5578L1.8518 32.4926C1.75167 33.1648 1.94895 33.8471 2.39264 34.3634C2.8366 34.8797 3.48326 35.1791 4.16574 35.1842H24.8395C25.522 35.1791 26.1687 34.8797 26.6126 34.3634C27.0563 33.8471 27.2533 33.1646 27.1529 32.4926L23.7027 10.5578C23.6514 10.2219 23.4805 9.91553 23.2213 9.69476C22.9621 9.47374 22.6316 9.35297 22.2905 9.35459H20.7858V11.8841C20.7858 12.3856 20.3774 12.7919 19.874 12.7919C19.3703 12.7919 18.9622 12.3856 18.9622 11.8841V9.35459H10.4027V11.8841C10.4027 12.3856 9.99458 12.7919 9.49092 12.7919C8.98725 12.7919 8.57912 12.3856 8.57912 11.8841V9.35459H6.71527ZM10.4024 7.5389H18.9618V6.05772C18.9591 4.53711 18.1428 3.13292 16.8199 2.37337C15.4967 1.6139 13.8674 1.6139 12.5442 2.37337C11.2213 3.13285 10.405 4.53705 10.4023 6.05772L10.4024 7.5389Z" fill="#556AD6"/>
</svg>
