<svg width="91" height="73" viewBox="0 0 91 73" fill="none" xmlns="http://www.w3.org/2000/svg">
<path fill-rule="evenodd" clip-rule="evenodd" d="M86.3524 56.1552H38.0972C37.6583 56.1552 37.3017 55.7993 37.3017 55.3597C37.3017 54.9208 37.6576 54.5643 38.0972 54.5643H86.3524C87.8516 54.5643 89.0731 53.3442 89.0731 51.8428V4.31157C89.0731 2.8123 87.851 1.59005 86.3516 1.59005H5.63183C4.13256 1.59005 2.90958 2.81224 2.90958 4.31157L2.9103 45.9902C2.9103 46.4291 2.55588 46.7857 2.11485 46.7857C1.67596 46.7857 1.3194 46.4299 1.3194 45.9902L1.32011 4.31157C1.32011 1.93373 3.25402 0 5.63168 0H86.3515C88.7293 0 90.663 1.93464 90.663 4.31157L90.6638 51.8428C90.6638 54.2206 88.7284 56.1543 86.3515 56.1543L86.3524 56.1552Z" fill="#5A5C5F"/>
<path fill-rule="evenodd" clip-rule="evenodd" d="M9.5385 13.5545C9.22991 13.5545 8.9786 13.8051 8.9786 14.1137L8.97931 25.548C8.97931 25.8544 9.2292 26.105 9.53779 26.105H22.1484C22.457 26.105 22.7069 25.8544 22.7069 25.548L22.7076 24.1604H19.3776C18.29 24.1604 17.403 23.2762 17.403 22.1871L17.4037 17.2454C17.4037 16.1585 18.2894 15.2721 19.377 15.2721H22.7078V14.1143C22.7078 13.8057 22.4565 13.5551 22.1486 13.5551H9.53869L9.5385 13.5545ZM22.1484 27.6951H9.5385C8.35211 27.6951 7.38849 26.7321 7.38849 25.5479V14.1136C7.38849 12.9286 8.35148 11.9663 9.53795 11.9663H22.1486C23.3328 11.9663 24.2981 12.9293 24.2981 14.1143L24.2988 16.0675C24.2988 16.5064 23.9415 16.8629 23.5026 16.8629H19.3778C19.1709 16.8629 18.994 17.039 18.994 17.246L18.9947 22.1877C18.9947 22.3967 19.1701 22.5707 19.3771 22.5707H23.5026C23.9415 22.5707 24.298 22.9273 24.298 23.3662L24.2988 25.5492C24.2988 26.7341 23.3329 27.6972 22.1487 27.6972L22.1484 27.6951Z" fill="#5A5C5F"/>
<path fill-rule="evenodd" clip-rule="evenodd" d="M23.5035 24.1617C23.0624 24.1617 22.708 23.8058 22.708 23.3662L22.7087 16.0683C22.7087 15.6294 23.0624 15.2728 23.5035 15.2728C23.9423 15.2728 24.2989 15.6294 24.2989 16.0683L24.2996 23.3662C24.2996 23.8051 23.9423 24.1617 23.5034 24.1617H23.5035Z" fill="#5A5C5F"/>
<path fill-rule="evenodd" clip-rule="evenodd" d="M8.97948 22.5706H12.3073C12.5164 22.5706 12.6904 22.3966 12.6904 22.1876V17.2458C12.6904 17.0389 12.5164 16.8628 12.3073 16.8628H8.97948V22.5706ZM12.3073 24.1608H8.18473C7.74512 24.1608 7.38855 23.805 7.38855 23.3654V16.0674C7.38855 15.6285 7.74439 15.272 8.184 15.272H12.3073C13.3971 15.272 14.2806 16.1584 14.2806 17.246L14.2814 22.1877C14.2814 23.2768 13.3964 24.1618 12.3073 24.1618L12.3073 24.1608Z" fill="#5A5C5F"/>
<path fill-rule="evenodd" clip-rule="evenodd" d="M12.1101 16.8629C11.6712 16.8629 11.3139 16.5071 11.3139 16.0675V12.7596C11.3139 12.3207 11.6697 11.9663 12.1094 11.9663C12.549 11.9663 12.9048 12.3207 12.9048 12.7596V16.0667C12.9048 16.5056 12.5482 16.8622 12.1101 16.8622L12.1101 16.8629ZM19.4747 16.8629C19.0358 16.8629 18.6786 16.5071 18.6786 16.0675L18.6793 12.7596C18.6793 12.3207 19.0344 11.9663 19.474 11.9663C19.9136 11.9663 20.2695 12.3207 20.2695 12.7596V16.0667C20.2695 16.5056 19.9129 16.8622 19.4747 16.8622L19.4747 16.8629ZM12.1101 27.6964C11.6712 27.6964 11.3139 27.3405 11.3139 26.9009V23.3654C11.3139 22.9265 11.6697 22.57 12.1094 22.57C12.549 22.57 12.9048 22.9265 12.9048 23.3654V26.9002C12.9048 27.3391 12.5482 27.6956 12.1101 27.6956L12.1101 27.6964ZM19.4747 27.6964C19.0358 27.6964 18.6786 27.3405 18.6786 26.9009L18.6793 23.3654C18.6793 22.9265 19.0344 22.57 19.474 22.57C19.9136 22.57 20.2695 22.9265 20.2695 23.3654V26.9002C20.2695 27.3391 19.9129 27.6956 19.4747 27.6956L19.4747 27.6964Z" fill="#5A5C5F"/>
<path fill-rule="evenodd" clip-rule="evenodd" d="M18.199 18.5932H13.485C13.0461 18.5932 12.6895 18.2374 12.6895 17.7978C12.6895 17.3589 13.0454 17.0023 13.485 17.0023H18.199C18.6379 17.0023 18.9938 17.3589 18.9938 17.7978C18.9945 18.2367 18.6372 18.5932 18.199 18.5932ZM18.199 22.6586H13.485C13.0461 22.6586 12.6895 22.3028 12.6895 21.8632C12.6895 21.4243 13.0454 21.0677 13.485 21.0677H18.199C18.6379 21.0677 18.9938 21.4236 18.9938 21.8632C18.9945 22.3021 18.6372 22.6586 18.199 22.6586Z" fill="#5A5C5F"/>
<path fill-rule="evenodd" clip-rule="evenodd" d="M13.4848 20.6259H8.18363C7.74403 20.6259 7.38745 20.2701 7.38745 19.8305C7.38745 19.3916 7.74329 19.035 8.1829 19.035H13.4848C13.9244 19.035 14.2802 19.3916 14.2802 19.8305C14.281 20.2694 13.9237 20.6259 13.4848 20.6259ZM23.502 20.6259H18.198C17.7591 20.6259 17.4025 20.2701 17.4025 19.8305C17.4032 19.3916 17.7591 19.035 18.198 19.035H23.502C23.9409 19.035 24.2975 19.3916 24.2975 19.8305C24.2982 20.2694 23.9409 20.6259 23.502 20.6259Z" fill="#5A5C5F"/>
<path fill-rule="evenodd" clip-rule="evenodd" d="M19.5261 34.9814C9.63619 34.9814 1.59006 43.0275 1.59006 52.9161C1.59077 62.8074 9.63619 70.8528 19.5255 70.8528C29.4154 70.8528 37.4602 62.8067 37.4602 52.9161C37.4609 43.0269 29.4146 34.9814 19.5262 34.9814H19.5261ZM19.5261 72.4443C8.75841 72.4443 0 63.6843 0 52.9164C0 42.1517 8.75859 33.3904 19.5261 33.3904C30.2937 33.3904 39.0521 42.1504 39.0521 52.9164C39.0528 63.6833 30.2943 72.4443 19.5279 72.4443H19.5261Z" fill="#5A5C5F"/>
<path fill-rule="evenodd" clip-rule="evenodd" d="M12.0881 49.6593C11.047 49.6593 10.1992 50.5063 10.1992 51.5481L10.2 62.5929C10.2 63.6346 11.0463 64.4817 12.0881 64.4817H26.9618C28.0036 64.4817 28.8506 63.6347 28.8506 62.5929V51.5481C28.8506 50.5063 28.0036 49.6593 26.9618 49.6593H12.0881ZM26.9618 66.0717H12.0881C10.1707 66.0717 8.60846 64.5102 8.60846 62.5929V51.5481C8.60846 49.6299 10.17 48.0685 12.0873 48.0685H26.9611C28.8792 48.0685 30.4407 49.63 30.4407 51.5481L30.4414 62.5929C30.4414 64.5103 28.8791 66.0725 26.9618 66.0717H26.9618Z" fill="#5A5C5F"/>
<path fill-rule="evenodd" clip-rule="evenodd" d="M26.9622 49.6593C26.5233 49.6593 26.1667 49.3034 26.1667 48.8638V44.5042C26.1667 41.6918 23.8778 39.4014 21.0632 39.4014H17.9859C15.1714 39.4014 12.883 41.6918 12.883 44.5042L12.8837 48.8638C12.8837 49.3027 12.5272 49.6593 12.0876 49.6593C11.6487 49.6593 11.2921 49.3034 11.2921 48.8638V44.5042C11.2921 40.8133 14.295 37.8104 17.9852 37.8104H21.0639C24.7541 37.8104 27.7563 40.8133 27.7563 44.5042L27.757 48.8638C27.757 49.3027 27.4004 49.6593 26.9615 49.6593H26.9622Z" fill="#5A5C5F"/>
<path fill-rule="evenodd" clip-rule="evenodd" d="M18.4666 60.4277H20.5831L19.852 57.5078C19.7647 57.1534 19.9279 56.7854 20.2487 56.6129C20.752 56.3436 21.0649 55.8217 21.0649 55.2525C21.0656 54.4033 20.3733 53.7117 19.5241 53.7117C18.675 53.7117 17.9834 54.4033 17.9834 55.2525C17.9834 55.8224 18.2962 56.3436 18.7996 56.6129C19.121 56.7847 19.2843 57.1534 19.1969 57.5078L18.4666 60.4277ZM21.6018 62.0179H17.4484C17.2036 62.0179 16.9716 61.904 16.8219 61.7114C16.6709 61.5188 16.6172 61.2661 16.6773 61.0298L17.52 57.6581C16.8148 57.0703 16.3931 56.194 16.3931 55.2517C16.3931 53.5262 17.7971 52.1207 19.5248 52.1207C21.2525 52.1207 22.6558 53.5269 22.6558 55.2517C22.6558 56.1939 22.2355 57.0703 21.5288 57.6581L22.3723 61.0298C22.4331 61.2661 22.378 61.5188 22.2269 61.7114C22.078 61.904 21.846 62.0179 21.6011 62.0179H21.6018Z" fill="#5A5C5F"/>
<path fill-rule="evenodd" clip-rule="evenodd" d="M75.2541 17.7593C75.0593 17.7593 74.8624 17.697 74.6949 17.5731C74.2853 17.2645 74.2001 16.6803 74.5087 16.2686C75.1288 15.4445 75.4409 14.5682 75.4409 13.6675C75.4409 12.7668 75.128 11.8926 74.5087 11.0684C74.2008 10.656 74.2853 10.0725 74.6949 9.76393C75.1073 9.45534 75.6908 9.53839 76.0001 9.95008C76.8543 11.0871 77.3046 12.373 77.3046 13.6674C77.3046 14.9618 76.8536 16.2478 76.0001 17.387C75.8161 17.629 75.5362 17.76 75.2548 17.76L75.2541 17.7593Z" fill="#5A5C5F"/>
<path fill-rule="evenodd" clip-rule="evenodd" d="M75.2541 17.7593C75.0593 17.7593 74.8624 17.697 74.6949 17.5731C74.2853 17.2645 74.2001 16.6803 74.5087 16.2686C75.1288 15.4445 75.4409 14.5681 75.4409 13.6675C75.4409 12.7668 75.128 11.8926 74.5087 11.0684C74.2008 10.656 74.2853 10.0725 74.6949 9.76389C75.1073 9.4553 75.6908 9.53835 76.0001 9.95004C76.8543 11.087 77.3046 12.373 77.3046 13.6674C77.3046 14.9618 76.8536 16.2478 76.0001 17.3869C75.8161 17.6289 75.5362 17.76 75.2548 17.76L75.2541 17.7593ZM77.4063 19.1468C77.1843 19.1468 76.9631 19.0681 76.7869 18.9105C76.4017 18.569 76.3688 17.9805 76.7103 17.5953C77.7843 16.3917 78.3506 15.0334 78.3506 13.6666C78.3514 12.302 77.7829 10.9431 76.7103 9.73794C76.3688 9.3549 76.4017 8.76635 76.7869 8.42482C77.1707 8.08329 77.7607 8.11623 78.1001 8.49928C79.4819 10.0501 80.2121 11.8379 80.2121 13.6665C80.2121 15.4972 79.4811 17.2843 78.1001 18.8336C77.9182 19.0405 77.6612 19.1465 77.4063 19.1465V19.1468Z" fill="#5A5C5F"/>
<path fill-rule="evenodd" clip-rule="evenodd" d="M79.2791 14.5993C78.7657 14.5993 78.349 14.1834 78.349 13.6671C78.3498 12.3025 77.7813 10.9436 76.7087 9.73846C76.3672 9.35542 76.4001 8.76687 76.7853 8.42534C77.1691 8.08381 77.7591 8.11675 78.0985 8.4998C79.4803 10.0506 80.2105 11.8385 80.2105 13.667C80.2105 14.1825 79.7945 14.5992 79.279 14.5992L79.2791 14.5993ZM79.5211 20.5142C79.2855 20.5142 79.0486 20.4254 78.8667 20.2449C78.5008 19.8848 78.498 19.2941 78.8588 18.9275C80.4268 17.3409 81.2566 15.5209 81.2566 13.6672C81.2566 11.8136 80.4261 9.99573 78.8588 8.40897C78.4987 8.04239 78.5001 7.45241 78.8667 7.09156C79.2311 6.72927 79.8211 6.73358 80.1841 7.10015C82.1037 9.04268 83.119 11.3144 83.119 13.6671C83.119 16.0221 82.1044 18.2938 80.1841 20.2363C80.0022 20.4203 79.7617 20.5141 79.5218 20.5134L79.5211 20.5142Z" fill="#5A5C5F"/>
<path fill-rule="evenodd" clip-rule="evenodd" d="M79.5211 20.5141C79.2855 20.5141 79.0485 20.4254 78.8667 20.2449C78.5008 19.8848 78.498 19.2941 78.8588 18.9275C80.4268 17.3409 81.2566 15.5208 81.2566 13.6672C81.2566 11.8136 80.4261 9.99571 78.8588 8.40895C78.4987 8.04237 78.5001 7.45239 78.8667 7.09154C79.2311 6.72925 79.8211 6.73355 80.1841 7.10013C82.1037 9.04266 83.1189 11.3144 83.1189 13.6671C83.1189 16.022 82.1044 18.2938 80.1841 20.2363C80.0022 20.4203 79.7617 20.5141 79.5218 20.5134L79.5211 20.5141ZM81.6189 21.8688C81.3725 21.8688 81.1263 21.7714 80.9415 21.5766C80.59 21.2015 80.6058 20.6136 80.9809 20.2592C83.0622 18.2938 84.1641 16.0157 84.1641 13.6671C84.1641 11.3208 83.0623 9.0405 80.9809 7.07506C80.6065 6.7228 80.5893 6.13283 80.9415 5.7598C81.2967 5.38462 81.8838 5.36816 82.259 5.72042C84.7233 8.04804 86.0265 10.7947 86.0265 13.667C86.0265 16.5394 84.7234 19.2875 82.259 21.6136C82.0792 21.7833 81.8487 21.8685 81.6189 21.8685V21.8688Z" fill="#5A5C5F"/>
<path fill-rule="evenodd" clip-rule="evenodd" d="M73.1627 40.7861C72.5083 40.7861 71.9734 41.3188 71.9734 41.9746V46.7567C71.9734 47.4111 72.5076 47.9438 73.162 47.9438H83.1141C83.7686 47.9438 84.302 47.4119 84.302 46.7574V41.9754C84.302 41.3188 83.7671 40.7868 83.1127 40.7868H73.162L73.1627 40.7861ZM83.1141 49.5341H73.1627C71.6298 49.5341 70.3825 48.2897 70.3825 46.7568L70.3832 41.9747C70.3832 40.4418 71.629 39.1953 73.1619 39.1953H83.1141C84.6463 39.1953 85.8928 40.4418 85.8928 41.9747L85.8935 46.7568C85.8935 48.2897 84.6463 49.5341 83.1141 49.5341H83.1141Z" fill="#5A5C5F"/>
<path fill-rule="evenodd" clip-rule="evenodd" d="M48.8106 49.5347H42.6954C42.2565 49.5347 41.8992 49.1789 41.8992 48.7393C41.8992 48.3004 42.2551 47.9438 42.6947 47.9438H48.8106C49.2495 47.9438 49.6053 48.3004 49.6053 48.7393C49.6053 49.1782 49.2488 49.5347 48.8106 49.5347Z" fill="#5A5C5F"/>
<path fill-rule="evenodd" clip-rule="evenodd" d="M58.2043 49.5347H52.0891C51.6502 49.5347 51.2929 49.1789 51.2929 48.7393C51.2929 48.3004 51.6488 47.9438 52.0884 47.9438H58.2043C58.6431 47.9438 58.999 48.3004 58.999 48.7393C58.999 49.1782 58.6424 49.5347 58.2043 49.5347Z" fill="#5A5C5F"/>
<path fill-rule="evenodd" clip-rule="evenodd" d="M67.5998 49.5347H61.4847C61.0458 49.5347 60.6885 49.1789 60.6885 48.7393C60.6885 48.3004 61.0443 47.9438 61.4839 47.9438H67.5998C68.0387 47.9438 68.3945 48.3004 68.3945 48.7393C68.3945 49.1782 68.0387 49.5347 67.5998 49.5347Z" fill="#5A5C5F"/>
</svg>
