<svg width="111" height="62" viewBox="0 0 111 62" fill="none" xmlns="http://www.w3.org/2000/svg">
<path d="M93.6551 7.69387H78.5866C78.0124 7.69387 77.4906 7.92643 77.1119 8.30083C76.7341 8.67605 76.4994 9.19231 76.4994 9.76133V47.4942C76.4994 48.0632 76.7341 48.5803 77.1119 48.9547C77.4906 49.3299 78.0124 49.5625 78.5866 49.5625H81.3497L81.3513 49.5468L81.3547 49.5196L81.3672 49.419L81.373 49.3769L81.3838 49.2969L81.3938 49.226L81.4021 49.1724L81.4129 49.1015L81.4229 49.0421L81.4346 48.9695L81.4354 48.9629L81.4554 48.8516L81.457 48.8442L81.4795 48.7263V48.7254L81.4953 48.6446L81.5036 48.6009L81.5195 48.5242L81.5311 48.4698L81.5444 48.4088L81.5611 48.3346L81.5735 48.2793L81.5877 48.2216L81.606 48.1457L81.6077 48.1408L81.6343 48.0368L81.6376 48.0253L81.6684 47.9107L81.6992 47.801L81.7009 47.7952L81.7258 47.7078L81.7367 47.6699L81.7583 47.5981L81.7791 47.5305L81.7924 47.4876L81.8166 47.4109L81.8357 47.3532L81.8515 47.307L81.8765 47.2328L81.8773 47.2311L81.9164 47.1198L81.9181 47.1157L81.9572 47.0085L81.9589 47.0044L81.9788 46.9499L82.008 46.8732L82.0263 46.8254L82.0504 46.7635L82.0746 46.7042L82.1012 46.6382L82.122 46.5887L82.1619 46.4947L82.1694 46.4757L82.1969 46.4122L82.2535 46.2844L82.2701 46.2465L82.2776 46.23L82.2901 46.2044L82.3284 46.1228L82.3575 46.0601L82.375 46.023L82.4099 45.9504L82.4399 45.8894L82.4607 45.8482L82.4998 45.7715L82.5148 45.741L82.5256 45.7212L82.578 45.6214L82.5797 45.6181L82.6355 45.5158L82.643 45.5026L82.6588 45.4738L82.7037 45.3938L82.7204 45.3641L82.7661 45.2841L82.7886 45.2453L82.8277 45.1793L82.8602 45.1249L82.8851 45.0829L82.9251 45.0169L82.9284 45.0111L82.9858 44.9188L82.99 44.9122L83.0524 44.814L83.0582 44.8041L83.1157 44.7167L83.1232 44.7052L83.228 44.5493L83.2655 44.4957L83.2963 44.4512L83.3537 44.3712L83.3653 44.3547L83.4236 44.2739L83.4419 44.2499L83.4486 44.2409L83.5176 44.1477L83.5226 44.1419L83.6009 44.0396L83.6183 44.0166L83.6749 43.9448L83.7057 43.9061L83.7573 43.8409L83.7839 43.8087L83.843 43.7362L83.863 43.7123L83.9246 43.6397L83.9446 43.6158L83.9546 43.6042L84.0303 43.5168L84.0328 43.5135L84.1068 43.4294L84.1218 43.4129L84.1842 43.3436L84.1934 43.3337L84.2417 43.2818L84.285 43.2356L84.3199 43.1977L84.3773 43.1366L84.4065 43.1061L84.4622 43.0492L84.4905 43.0204L84.5038 43.0072L84.5854 42.9255C86.6243 40.9042 89.4423 39.6541 92.5548 39.6541C95.6672 39.6541 98.4853 40.9043 100.524 42.9255L100.606 43.0072L100.619 43.0204L100.647 43.0492L100.703 43.1061L100.732 43.1366L100.79 43.1977L100.825 43.2356L100.867 43.2818L100.915 43.3337L100.924 43.3436L100.987 43.4129L101.002 43.4294L101.076 43.5135L101.078 43.5168L101.154 43.6042L101.163 43.6158L101.183 43.6397L101.245 43.7123L101.265 43.7362L101.324 43.8087L101.351 43.8409L101.402 43.9061L101.433 43.9448L101.489 44.0166L101.507 44.0396L101.585 44.1419L101.59 44.1477L101.659 44.2409L101.666 44.2499L101.684 44.2739L101.743 44.3547L101.754 44.3712L101.812 44.4512L101.842 44.4957L101.879 44.5493L101.916 44.6037L101.985 44.7052L101.992 44.7167L102.05 44.8041L102.055 44.814L102.118 44.9122L102.122 44.9188L102.179 45.0111L102.183 45.0169L102.223 45.0829L102.248 45.1249L102.28 45.1793L102.319 45.2453L102.342 45.2841L102.388 45.3641L102.404 45.3938L102.449 45.4738L102.465 45.5026L102.472 45.5158L102.527 45.6181L102.53 45.6214L102.582 45.7212L102.592 45.741L102.607 45.7715L102.647 45.8482L102.668 45.8894L102.698 45.9504L102.733 46.023L102.75 46.0601L102.779 46.1228L102.818 46.2044L102.829 46.23L102.838 46.2465L102.854 46.2844L102.911 46.4122L102.938 46.4757L102.946 46.4947L102.986 46.5887L103.032 46.7042L103.057 46.7635L103.081 46.8254L103.099 46.8732L103.127 46.9499L103.147 47.0044L103.149 47.0085L103.188 47.1157L103.19 47.1198L103.229 47.2311L103.23 47.2328L103.255 47.307L103.27 47.3532L103.289 47.4109L103.314 47.4876L103.327 47.5305L103.348 47.5981L103.37 47.6699L103.38 47.7078L103.405 47.7952L103.407 47.801L103.438 47.9107L103.469 48.0253L103.471 48.0368L103.498 48.1408L103.499 48.1457L103.518 48.2216L103.531 48.2793L103.543 48.3346L103.56 48.4088L103.573 48.4698L103.585 48.5242L103.601 48.6009L103.609 48.6446L103.625 48.7254V48.7263L103.648 48.8442L103.649 48.8516L103.669 48.9629L103.67 48.9695L103.682 49.0421L103.692 49.1015L103.702 49.1724L103.711 49.226L103.721 49.2969L103.732 49.3769L103.737 49.419L103.75 49.5196L103.753 49.5468L103.755 49.5625H106.364C106.938 49.5625 107.459 49.3299 107.838 48.9547C108.216 48.5803 108.45 48.0632 108.45 47.4942V43.2248H104.567C104.133 43.2248 103.737 43.0483 103.45 42.7646H103.448C103.161 42.4801 102.983 42.0876 102.983 41.6554V37.2756C102.983 36.8435 103.161 36.4509 103.449 36.1656L103.45 36.1673C103.738 35.8819 104.134 35.7054 104.568 35.7054H108.451V27.246L95.38 8.57779C95.1753 8.28504 94.924 8.06155 94.6402 7.91476C94.3605 7.76962 94.0301 7.69374 93.6631 7.69374L93.6551 7.69387ZM22.4918 61.5772C22.0216 61.5772 21.6396 61.1986 21.6396 60.7319C21.6396 60.2659 22.0216 59.8874 22.4918 59.8874H31.7354C31.2469 59.5378 30.7867 59.1493 30.3614 58.7279C28.6054 56.9878 27.4262 54.6755 27.1324 52.0976H19.6914C18.2866 52.0976 17.0116 51.5294 16.0878 50.614C15.1632 49.6986 14.5907 48.4344 14.5907 47.0432V39.819C14.5907 38.4278 15.1641 37.1635 16.0878 36.2481C17.0116 35.3328 18.2874 34.7646 19.6914 34.7646H25.3232V1.2667C25.3232 0.567376 25.8958 0 26.6015 0H65.3107C66.0165 0 66.589 0.567376 66.589 1.2667V34.7646H71.3993C72.3248 34.7646 73.1944 35.0112 73.9442 35.4416V9.76351C73.9442 8.49516 74.4652 7.34475 75.3057 6.51189C76.1463 5.67897 77.3072 5.16273 78.5871 5.16273H93.6556C94.4262 5.16273 95.1553 5.34086 95.811 5.68062C96.4627 6.01874 97.0261 6.51189 97.4697 7.14524L110.711 26.0566C110.892 26.2752 111 26.5548 111 26.8582V47.4974C111 48.7658 110.479 49.9162 109.638 50.749C108.798 51.5819 107.637 52.0982 106.357 52.0982H103.748C103.454 54.6761 102.275 56.9885 100.519 58.7285C100.094 59.1499 99.6344 59.5383 99.145 59.888H106.117C106.587 59.888 106.969 60.2665 106.969 60.7325C106.969 61.1992 106.587 61.5778 106.117 61.5778H95.6297C94.6501 61.8524 93.6174 62 92.5496 62C91.4819 62 90.4482 61.8524 89.4695 61.5778H78.3668C77.8958 61.5778 77.5138 61.1992 77.5138 60.7325C77.5138 60.2665 77.8958 59.888 78.3668 59.888H85.9551C85.4657 59.5384 85.0063 59.1499 84.581 58.7285C82.825 56.9885 81.645 54.6761 81.352 52.0982H78.589C77.309 52.0982 76.1472 51.5819 75.3076 50.749C75.2343 50.6756 75.1628 50.6006 75.0945 50.5231C75.0654 50.5544 75.0354 50.5849 75.0046 50.6146C74.08 51.53 72.8051 52.0982 71.4011 52.0982H49.5314C49.2376 54.6761 48.0584 56.9885 46.3024 58.7285C45.8771 59.1499 45.4178 59.5383 44.9284 59.888H66.3294C66.8004 59.888 67.1816 60.2665 67.1816 60.7325C67.1816 61.1992 66.8004 61.5778 66.3294 61.5778H41.4131C40.4343 61.8524 39.4007 62 38.333 62C37.2652 62 36.2316 61.8524 35.2529 61.5778H22.4948L22.4918 61.5772ZM73.3428 61.5772C72.8718 61.5772 72.4906 61.1986 72.4906 60.7319C72.4906 60.2659 72.8718 59.8874 73.3428 59.8874H74.7459C75.217 59.8874 75.5981 60.2659 75.5981 60.7319C75.5981 61.1986 75.217 61.5772 74.7459 61.5772H73.3428ZM53.8644 30.5325C53.5115 30.5325 53.2252 30.2488 53.2252 29.8991C53.2252 29.5495 53.5115 29.2658 53.8644 29.2658H58.673C59.0258 29.2658 59.3121 29.5495 59.3121 29.8991C59.3121 30.2488 59.0258 30.5325 58.673 30.5325H53.8644ZM27.8807 34.7639H64.0333V2.5327H51.3519V12.6275C51.3519 13.0934 50.9707 13.4719 50.4997 13.4719C50.2983 13.4719 50.1135 13.4026 49.9679 13.2872L45.9798 10.5114L41.8952 13.3203C41.509 13.5842 40.9797 13.4886 40.7134 13.1059C40.6119 12.96 40.5628 12.7925 40.5628 12.6276H40.5603V2.53287H27.8795V34.764L27.8807 34.7639ZM73.9445 39.8191C73.9445 39.1272 73.6573 38.4963 73.1954 38.0386C72.7336 37.5809 72.0977 37.2972 71.3995 37.2972H19.692C18.9929 37.2972 18.3571 37.5809 17.8952 38.0386C17.4333 38.4963 17.1462 39.1263 17.1462 39.8191V47.0433C17.1462 47.7352 17.4333 48.3652 17.8952 48.8229C18.3571 49.2806 18.9929 49.5651 19.692 49.5651H27.133C27.4268 46.9872 28.6061 44.6748 30.362 42.9348C32.4018 40.9135 35.2198 39.6633 38.3314 39.6633C41.4439 39.6633 44.2619 40.9135 46.3008 42.9348C48.0568 44.6748 49.2369 46.9872 49.5298 49.5651H71.3995C72.0977 49.5651 72.7344 49.2806 73.1954 48.8229C73.6573 48.366 73.9445 47.7352 73.9445 47.0433V39.8191ZM108.444 41.9608V36.9741H104.561C104.476 36.9741 104.399 37.007 104.345 37.0606V37.0631C104.289 37.1184 104.254 37.1942 104.254 37.2775V41.6574C104.254 41.7398 104.288 41.8165 104.344 41.8709L104.343 41.8718C104.398 41.9262 104.476 41.96 104.561 41.96H108.444L108.444 41.9608ZM0.639984 26.6285C0.287129 26.6285 0 26.3448 0 25.9951C0 25.6455 0.286298 25.3618 0.639984 25.3618H1.29495C1.6478 25.3618 1.9341 25.6455 1.9341 25.9951C1.9341 26.3448 1.6478 26.6285 1.29495 26.6285H0.639984ZM6.52552 26.6285C6.17266 26.6285 5.88636 26.3448 5.88636 25.9951C5.88636 25.6455 6.17266 25.3618 6.52552 25.3618H19.8887C20.2416 25.3618 20.5279 25.6455 20.5279 25.9951C20.5279 26.3448 20.2416 26.6285 19.8887 26.6285H6.52552ZM9.68549 18.1864C9.33264 18.1864 9.04634 17.9027 9.04634 17.5522C9.04634 17.2025 9.33264 16.9188 9.68549 16.9188H19.8887C20.2416 16.9188 20.5279 17.2025 20.5279 17.5522C20.5279 17.9018 20.2416 18.1864 19.8887 18.1864H9.68549ZM42.2631 2.53397V11.0183L45.4606 8.8206C45.7477 8.59958 46.158 8.57898 46.4709 8.79751L49.645 11.0068V2.53495H42.2632L42.2631 2.53397ZM81.3431 32.5167C80.9902 32.5167 80.7039 32.233 80.7039 31.8834C80.7039 31.5337 80.9902 31.25 81.3431 31.25H84.5079C84.8608 31.25 85.1471 31.5337 85.1471 31.8834C85.1471 32.233 84.8608 32.5167 84.5079 32.5167H81.3431ZM38.3302 47.0707C39.378 47.0707 40.3276 47.4913 41.0142 48.1725L41.0625 48.2244C41.7208 48.9007 42.1261 49.8202 42.1261 50.8321C42.1261 51.8679 41.7016 52.8081 41.0142 53.4884L41.0109 53.4917C40.3243 54.1721 39.3755 54.5935 38.3303 54.5935C37.2825 54.5935 36.3337 54.1721 35.6463 53.4917L35.5972 53.4389C34.9389 52.7611 34.5344 51.8424 34.5344 50.8321C34.5344 49.7971 34.9597 48.8561 35.6479 48.1741L35.6463 48.1725C36.3329 47.4921 37.2824 47.0707 38.3303 47.0707L38.3302 47.0707ZM39.8091 49.3666C39.4312 48.9922 38.9078 48.7596 38.3302 48.7596C37.7526 48.7596 37.23 48.9922 36.8513 49.3666L36.8497 49.3649L36.848 49.3666C36.4718 49.7393 36.2388 50.2573 36.2388 50.832C36.2388 51.3879 36.4568 51.8917 36.8122 52.2612L36.8513 52.2975C37.2291 52.6727 37.7526 52.9044 38.3302 52.9044C38.9094 52.9044 39.4329 52.6727 39.8107 52.2991C40.1877 51.9247 40.4216 51.406 40.4216 50.832C40.4216 50.277 40.2027 49.7732 39.8465 49.4012L39.8091 49.3666ZM44.4919 44.7263C42.9149 43.1635 40.7369 42.1971 38.3301 42.1971C35.9241 42.1971 33.7452 43.1636 32.1682 44.7263C30.5911 46.289 29.6159 48.448 29.6159 50.8322C29.6159 53.2163 30.5912 55.3754 32.1682 56.9381C33.7444 58.5008 35.9232 59.4673 38.3301 59.4673C40.7369 59.4673 42.9149 58.5007 44.4919 56.9381C46.069 55.3753 47.0443 53.2163 47.0443 50.8322C47.0443 48.448 46.0689 46.2889 44.4919 44.7263ZM92.5499 47.0707C93.5976 47.0707 94.5464 47.4913 95.2339 48.1725L95.2822 48.2244C95.9404 48.9007 96.3457 49.8202 96.3457 50.8321C96.3457 51.8679 95.9205 52.8081 95.2339 53.4884L95.2305 53.4917C94.5439 54.1721 93.5952 54.5935 92.5499 54.5935C91.5021 54.5935 90.5534 54.1721 89.8659 53.4917L89.8168 53.4389C89.1585 52.7611 88.754 51.8424 88.754 50.8321C88.754 49.7971 89.1793 48.8561 89.8676 48.1741L89.8659 48.1725C90.5525 47.4921 91.5021 47.0707 92.5499 47.0707L92.5499 47.0707ZM94.0287 49.3666C93.6501 48.9922 93.1274 48.7596 92.5499 48.7596C91.9723 48.7596 91.4496 48.9922 91.071 49.3666L91.0693 49.3649L91.0677 49.3666C90.6915 49.7393 90.4585 50.2573 90.4585 50.832C90.4585 51.3879 90.6773 51.8917 91.0327 52.2612L91.071 52.2975C91.4496 52.6727 91.9723 52.9044 92.5498 52.9044C93.1291 52.9044 93.6526 52.6727 94.0304 52.2991C94.4082 51.9247 94.6412 51.406 94.6412 50.832C94.6412 50.277 94.4224 49.7732 94.0662 49.4012L94.0287 49.3666ZM83.8355 50.832C83.8355 53.2162 84.8109 55.3753 86.3879 56.938C87.9649 58.5007 90.1437 59.4671 92.5497 59.4671C94.9557 59.4671 97.1346 58.5006 98.7116 56.938C100.288 55.3752 101.263 53.2162 101.263 50.832C101.263 48.4479 100.288 46.2888 98.7116 44.7261C97.1345 43.1634 94.9557 42.197 92.5497 42.197C90.1437 42.197 87.9649 43.1635 86.3879 44.7261C84.8116 46.2889 83.8355 48.4479 83.8355 50.832ZM101.118 26.0153L91.9406 12.3546H82.1961V26.0153H101.118ZM93.1032 11.045L103.383 26.3461C103.494 26.4888 103.559 26.6661 103.559 26.8599C103.559 27.3266 103.177 27.7043 102.706 27.7043H81.3437C80.8735 27.7043 80.4915 27.3266 80.4915 26.8599V11.5102C80.4915 11.0443 80.8735 10.6658 81.3437 10.6658H92.394V10.6682C92.6695 10.6682 92.94 10.801 93.1031 11.0459L93.1032 11.045Z" fill="#5A5C5F"/>
</svg>
