<svg width="28" height="19" viewBox="0 0 28 19" fill="none" xmlns="http://www.w3.org/2000/svg">
<path d="M25.8101 0H2.19286C0.98501 0 0 0.968589 0 2.1563V16.8437C0 18.0314 0.98501 19 2.19286 19H25.8069C27.0148 19 27.9998 18.0314 27.9998 16.8437L28 2.1563C28.0031 0.968798 27.0181 0 25.8102 0H25.8101ZM25.8101 0.916255C25.8791 0.916255 25.945 0.925454 26.0109 0.934858L14.0767 13.4441L2.13343 0.922298C2.15547 0.922298 2.17418 0.916165 2.1931 0.916165L25.8101 0.916255ZM13.738 14.4251C13.826 14.5177 13.9482 14.57 14.0769 14.57C14.2056 14.57 14.3278 14.5175 14.4158 14.4251L18.2369 10.4208L25.5499 18.0866L2.60433 18.0868L9.9174 10.421L13.738 14.4251ZM0.932056 2.15656C0.932056 1.84195 1.05451 1.55797 1.252 1.33906L9.27717 9.75167L1.51545 17.8895C1.1641 17.6673 0.93188 17.2848 0.93188 16.8467L0.932056 2.15656ZM27.0715 16.8471C27.0715 17.2451 26.8769 17.5967 26.579 17.8251L18.8774 9.75162L26.8206 1.42536C26.9742 1.63203 27.0684 1.88184 27.0684 2.15965V16.847L27.0715 16.8471Z" fill="#3C3E45"/>
</svg>
