<svg width="21" height="21" viewBox="0 0 21 21" fill="none" xmlns="http://www.w3.org/2000/svg">
<g clip-path="url(#clip0_35_134)">
<path d="M21 10.5C21 4.70101 16.299 0 10.5 0C4.70101 0 0 4.70101 0 10.5C0 15.7409 3.83972 20.0847 8.85938 20.8724V13.5352H6.19336V10.5H8.85938V8.18672C8.85938 5.55516 10.427 4.10156 12.8254 4.10156C13.9742 4.10156 15.1758 4.30664 15.1758 4.30664V6.89063H13.8518C12.5474 6.89063 12.1406 7.69999 12.1406 8.53035V10.5H15.0527L14.5872 13.5352H12.1406V20.8724C17.1603 20.0847 21 15.7409 21 10.5Z" fill="#6B6D70"/>
<path d="M14.5872 13.5352L15.0527 10.5H12.1406V8.53035C12.1406 7.69999 12.5474 6.89062 13.8518 6.89062H15.1758V4.30664C15.1758 4.30664 13.9741 4.10156 12.8254 4.10156C10.427 4.10156 8.85938 5.55516 8.85938 8.18672V10.5H6.19336V13.5352H8.85938V20.8724C9.39393 20.9563 9.94186 21 10.5 21C11.0581 21 11.606 20.9563 12.1406 20.8724V13.5352H14.5872Z" fill="white"/>
</g>
<defs>
<clipPath id="clip0_35_134">
<rect width="21" height="21" fill="white"/>
</clipPath>
</defs>
</svg>
