<svg width="19" height="19" viewBox="0 0 19 19" fill="none" xmlns="http://www.w3.org/2000/svg">
<g clip-path="url(#clip0_35_144)">
<path fill-rule="evenodd" clip-rule="evenodd" d="M19 2.375C19 1.06419 17.9358 0 16.625 0H2.375C1.06419 0 0 1.06419 0 2.375V16.625C0 17.9358 1.06419 19 2.375 19H16.625C17.9358 19 19 17.9358 19 16.625V2.375Z" fill="#5A5C5F"/>
<path d="M5.44813 6.63037H2.26562V16.2032H5.44813V6.63037Z" fill="white"/>
<path d="M3.87838 2.0144C2.78955 2.0144 2.07812 2.73024 2.07812 3.66848C2.07812 4.58701 2.76791 5.32259 3.83626 5.32259H3.85681C4.9665 5.32259 5.65721 4.58701 5.65721 3.66848C5.63662 2.73024 4.96657 2.0144 3.87838 2.0144Z" fill="white"/>
<path d="M13.2584 6.40527C11.5703 6.40527 10.8141 7.33364 10.3907 7.98572V6.63038H7.20901C7.25121 7.52831 7.20901 16.2031 7.20901 16.2031H10.3907V10.857C10.3907 10.5709 10.4112 10.2848 10.4956 10.0803C10.7252 9.5088 11.2491 8.91684 12.1281 8.91684C13.279 8.91684 13.74 9.79499 13.74 11.0813V16.2031H16.9218V10.7136C16.9218 7.77313 15.3519 6.40527 13.2584 6.40527Z" fill="white"/>
</g>
<defs>
<clipPath id="clip0_35_144">
<rect width="19" height="19" fill="white"/>
</clipPath>
</defs>
</svg>
