<svg width="75" height="75" viewBox="0 0 75 75" fill="none" xmlns="http://www.w3.org/2000/svg">
<path d="M75 30.8013C74.9921 24.2132 72.4214 17.881 67.8211 13.1187C63.2213 8.35668 56.9449 5.53076 50.2944 5.2267C50.1422 3.05993 51.0595 -0.945949 48.4974 0.203067L34.1826 9.87875C33.876 10.1001 33.6962 10.4543 33.7004 10.83C33.7041 11.2057 33.8913 11.5563 34.2027 11.7708L48.4742 21.4434H48.4747C48.8247 21.6836 49.281 21.7123 49.659 21.5172C50.6948 21.1624 50.1428 18.4122 50.2718 16.5972C54.4539 17.3392 58.174 19.6775 60.6298 23.1089C63.0852 26.5403 64.0802 30.7895 63.3993 34.9403C62.7183 39.0906 60.4157 42.8099 56.9891 45.2962V32.9043C56.9664 32.4632 56.7089 32.0682 56.3124 31.8657C52.6268 30.1542 28.9741 19.7784 28.9741 19.7784V19.7789C28.6754 19.6481 28.3354 19.6481 28.0367 19.7789L0.705171 31.8793C0.400102 32.0264 0.169586 32.2922 0.0686004 32.6129C-0.0905458 33.0352 0.0855185 61.3785 0.0247159 61.787C0.0231298 62.2355 0.288015 62.6436 0.701473 62.8283L28.0357 74.912V74.9125C28.3371 75.0292 28.6717 75.0292 28.9731 74.9125L56.3141 62.8288V62.8283C56.726 62.642 56.9903 62.2355 56.9909 61.787V55.1692C62.2114 53.5151 66.7678 50.2654 70.0037 45.8863C73.2399 41.5074 74.9884 36.2253 74.9984 30.801L75 30.8013ZM12.0832 38.9901C12.1916 39.0303 15.8873 40.6644 16.1036 40.7649V50.0958L12.0832 48.3173V38.9901ZM41.8105 27.9612L17.2916 38.796C16.757 38.5647 14.3508 37.4962 13.7719 37.2419L38.2908 26.4041L41.8105 27.9612ZM28.5106 43.7552L20.1077 40.0412L44.6266 29.2033L53.0331 32.9173L28.5106 43.7552ZM28.5106 22.0755L35.4754 25.1569L10.9564 35.9984L3.98855 32.9171L28.5106 22.0755ZM2.32008 61.0467V34.668L9.78931 37.9702V49.0492C9.78772 49.4982 10.0526 49.9063 10.4661 50.091C11.3834 50.3019 17.3431 53.6547 17.8808 52.8004C18.9165 52.8574 18.2191 43.3726 18.4021 41.7784L27.3633 45.7372V72.1226L2.32008 61.0467ZM54.7051 61.0467L29.6624 72.1226L29.6619 45.7373L54.7046 34.6849L54.7051 61.0467ZM56.9998 52.7539V47.9913C61.4584 45.328 64.5736 40.9244 65.576 35.8668C66.5785 30.8086 65.3756 25.5667 62.2636 21.4337C59.1516 17.3007 54.4201 14.6605 49.236 14.1649C47.3411 14.0712 48.1463 16.8809 47.984 18.3445L36.8905 10.8156L47.984 3.27988C48.1431 4.79042 47.3749 7.44958 49.1345 7.46941C75.6268 7.85817 81.5796 43.8621 56.9996 52.7536L56.9998 52.7539ZM56.323 31.8779L56.3225 31.8784C56.7618 32.0301 57.041 32.4582 56.9998 32.9165V45.3084" fill="#5A5C5F"/>
</svg>
