<svg width="24" height="24" viewBox="0 0 24 24" fill="none" xmlns="http://www.w3.org/2000/svg">
<path d="M7.54753 21.7507C16.6042 21.7507 21.5578 14.2474 21.5578 7.7405C21.5578 7.5274 21.5578 7.31525 21.5434 7.10403C22.507 6.40695 23.3389 5.54393 24 4.55525C23.1014 4.95345 22.148 5.21454 21.1718 5.32995C22.1995 4.71476 22.9692 3.74642 23.3366 2.60642C22.3701 3.17993 21.3126 3.58418 20.2099 3.80164C19.2789 2.81159 17.9786 2.24951 16.6196 2.24951C13.9158 2.24951 11.691 4.47439 11.691 7.17814C11.691 7.55323 11.7338 7.92715 11.8185 8.2925C7.86145 8.09417 4.16948 6.22245 1.67039 3.14787C0.370828 5.38503 1.04325 8.28425 3.19486 9.72097C2.41134 9.69776 1.64466 9.48636 0.96 9.10465V9.16704C0.960656 11.5021 2.62158 13.5316 4.91039 13.9939C4.18552 14.1916 3.42478 14.2205 2.68706 14.0784C3.33052 16.0793 5.18602 17.4585 7.28738 17.4979C5.54409 18.868 3.38939 19.6122 1.17216 19.6099C0.780375 19.6092 0.388969 19.5855 0 19.5389C2.25159 20.9838 4.87219 21.7505 7.54753 21.7469" fill="#5A5C5F"/>
</svg>
