<svg width="132" height="24" viewBox="0 0 132 24" fill="none" xmlns="http://www.w3.org/2000/svg">
<path d="M9.2108 0C11.4611 0 13.5015 0.457679 15.3323 1.35397C17.163 2.25026 18.6123 3.56609 19.6802 5.26331C20.7672 6.97961 21.3012 9.03917 21.3012 11.4801C21.3012 13.1392 21.0342 14.722 20.4811 16.1904C19.9281 17.6588 19.1463 18.9746 18.1355 20.0998C17.1248 21.2249 15.9044 22.1021 14.4932 22.7314C13.082 23.3607 11.4801 23.6849 9.72569 23.6849C8.69591 23.6849 0 23.6849 0 23.6849V0H4.57679C4.57679 0 7.74241 0 9.2108 0ZM9.42057 5.91169C8.90568 5.91169 8.37172 5.94983 7.81869 6.02611C7.26566 6.10239 6.76984 6.19774 6.31216 6.31216V17.3537C6.82705 17.5062 7.36101 17.6207 7.89497 17.6779C8.42893 17.7351 8.94382 17.7541 9.42057 17.7541C10.5648 17.7541 11.5373 17.4872 12.3383 16.9532C13.1392 16.4192 13.7494 15.7137 14.1881 14.8174C14.6076 13.9211 14.8364 12.9104 14.8364 11.8043C14.8364 10.0499 14.3597 8.61963 13.4443 7.53264C12.4908 6.46472 11.1559 5.91169 9.42057 5.91169Z" fill="#343A3D"/>
<path d="M107.326 0V14.2262C107.326 16.1904 106.868 17.8686 105.934 19.2988C105.018 20.71 103.779 21.797 102.234 22.5598C100.69 23.3226 98.9732 23.6849 97.0853 23.6849C95.2164 23.6849 93.5001 23.3035 91.9555 22.5598C90.4108 21.797 89.1713 20.71 88.2368 19.2988C87.3215 17.8876 86.8447 16.1904 86.8447 14.2262V0H93.1569V13.7876C93.1569 14.9509 93.4811 15.9234 94.1104 16.6672C94.7397 17.43 95.7313 17.7923 97.0853 17.7732C98.4393 17.7541 99.4309 17.3727 100.06 16.6481C100.69 15.9234 101.014 14.9699 101.014 13.7876V0H107.326Z" fill="#343A3D"/>
<path d="M80.876 0V23.6658H74.5638V12.0141C74.5638 12.0141 71.1312 15.9806 69.9298 17.2393C69.701 17.4872 68.9763 18.1928 68.9763 18.1928C68.9763 18.1928 68.2517 17.4872 68.0228 17.2393C66.8214 15.9616 63.3888 12.0141 63.3888 12.0141V23.6658H57.0767V0H59.3078L68.9573 9.99267L78.6448 0H80.876Z" fill="#343A3D"/>
<path d="M45.4245 9.3633V14.0927H36.4425V17.7732H46.6068V23.6848H30.1304V0.0380859H46.6068V5.77815H36.4425V9.3633H45.4245Z" fill="#343A3D"/>
<path d="M121.571 0.0380859C122.906 0.0380859 124.203 0.209716 125.5 0.533905C126.796 0.858095 127.826 1.2967 128.627 1.83066V7.95213C127.655 7.3991 126.701 6.90328 125.748 6.48374C124.794 6.0642 123.688 5.85443 122.41 5.85443C121.667 5.85443 121.018 5.96885 120.484 6.19769C119.95 6.42653 119.683 6.78886 119.683 7.30375C119.683 7.87584 120.007 8.29538 120.656 8.56236C121.304 8.84841 122.105 9.1726 123.059 9.51586L125.481 10.4312C127.121 11.0605 128.284 11.9187 128.97 13.0057C129.657 14.0927 130 15.1606 130 16.2476C130 17.6969 129.581 18.9746 128.742 20.0806C127.902 21.1867 126.777 22.0639 125.366 22.7123C123.955 23.3607 122.353 23.6658 120.599 23.6658C119.245 23.6658 117.91 23.4369 116.575 22.9602C115.24 22.4834 114.096 21.9113 113.104 21.2058V15.1034C114.191 15.9234 115.354 16.5718 116.594 17.0866C117.853 17.6015 119.092 17.8685 120.351 17.8685C121.133 17.8685 121.781 17.7732 122.258 17.5825C122.734 17.3918 122.982 17.0676 122.982 16.5908C122.982 16.2476 122.811 15.9615 122.448 15.7136C122.086 15.4657 121.609 15.2559 120.999 15.0652L117.795 14.0545C116.537 13.654 115.564 13.101 114.859 12.3954C114.153 11.6898 113.676 10.908 113.409 10.0498C113.142 9.19167 113.009 8.29538 113.009 7.3991C113.009 5.79722 113.409 4.46232 114.229 3.35626C115.049 2.26927 116.098 1.43019 117.395 0.877165C118.711 0.324136 120.103 0.0380859 121.571 0.0380859Z" fill="#343A3D"/>
</svg>
